<svg width="128" height="40" fill="none" xmlns="http://www.w3.org/2000/svg"><path d="M45.895 16.522H58.04v2.376h-9.68v7.19h8.744v2.346H48.36v9.094h-2.465V16.522Zm14.712 0H63.1v21.004h-2.493V16.522Zm6.737 19.888c-.95-1.055-1.424-2.532-1.424-4.43v-9.416h2.493V31.6c0 1.428.323 2.474.968 3.14.645.667 1.516 1 2.611.998.8.013 1.583-.223 2.243-.675a4.545 4.545 0 0 0 1.525-1.76c.358-.71.544-1.494.542-2.29v-8.45h2.494v14.963H76.42v-2.171h-.118a4.947 4.947 0 0 1-1.966 1.878 5.755 5.755 0 0 1-2.873.77c-1.798 0-3.17-.532-4.12-1.593Zm18.766 1.287a3.85 3.85 0 0 1-1.307-.807 3.694 3.694 0 0 1-.879-1.313 4.976 4.976 0 0 1-.294-1.823v-8.93h-2.61v-2.26h2.61v-4.225h2.492v4.225h3.639v2.26h-3.639v8.337c0 .847.157 1.46.47 1.86.372.44.91.66 1.614.66a3.042 3.042 0 0 0 1.644-.5v2.436a3.867 3.867 0 0 1-.894.292 6.216 6.216 0 0 1-1.16.089 4.695 4.695 0 0 1-1.687-.3Zm10.309 0a3.672 3.672 0 0 1-2.186-2.12 4.98 4.98 0 0 1-.292-1.823v-8.93H91.33v-2.26h2.61v-4.225h2.491v4.225h3.639v2.26h-3.639v8.337c0 .847.16 1.46.47 1.86.373.44.911.66 1.614.66a3.04 3.04 0 0 0 1.644-.5v2.436a3.846 3.846 0 0 1-.894.292 6.216 6.216 0 0 1-1.16.089 4.71 4.71 0 0 1-1.686-.3Zm8.434-.73a7.12 7.12 0 0 1-2.655-2.83 8.569 8.569 0 0 1-.953-4.064 8.922 8.922 0 0 1 .893-3.988 7.227 7.227 0 0 1 2.542-2.905 6.775 6.775 0 0 1 3.812-1.084 7.225 7.225 0 0 1 3.812.98 6.547 6.547 0 0 1 2.478 2.715 8.745 8.745 0 0 1 .866 3.962c.003.257-.026.513-.087.763h-11.822a5.913 5.913 0 0 0 .822 2.876 4.802 4.802 0 0 0 1.862 1.76 5.056 5.056 0 0 0 2.361.586c1.919 0 3.395-.9 4.43-2.698l2.118 1.027a7.487 7.487 0 0 1-2.632 2.876c-1.104.706-2.439 1.06-4.003 1.06a7.317 7.317 0 0 1-3.844-1.036Zm8.154-8.508a4.789 4.789 0 0 0-.53-1.878 4.011 4.011 0 0 0-1.482-1.584 4.636 4.636 0 0 0-2.541-.636 4.211 4.211 0 0 0-2.978 1.131 5.432 5.432 0 0 0-1.597 2.978l9.128-.01Zm4.257-5.895h2.378v2.405h.117a4.066 4.066 0 0 1 1.694-2.054 4.762 4.762 0 0 1 2.641-.822 4.373 4.373 0 0 1 1.76.322v2.669a4.681 4.681 0 0 0-2.118-.468 3.484 3.484 0 0 0-1.995.616 4.478 4.478 0 0 0-1.455 1.66 4.817 4.817 0 0 0-.542 2.252v8.38h-2.478v-14.96h-.002Z" fill="#757575"/><path d="M7.54 25.539 2 19.999 19.999 2h11.078L7.54 25.539Z" fill="#54C1F4"/><path d="M15.846 33.847 19.999 38h11.078l-9.693-9.69-5.538 5.537Z" fill="#015797"/><path d="m15.846 33.847 8.215-2.844-2.677-2.694-5.538 5.538Z" fill="url(#partners/Built-with-Flutter-40__a)"/><path d="M31.077 18.616H19.998l-9.69 9.693 5.538 5.538 15.23-15.231Z" fill="#54C1F4"/><path d="M45.933 2.13h3.314c.456-.002.906.108 1.31.321.397.206.733.512.973.89.24.38.365.82.36 1.27.012.418-.105.83-.334 1.18-.231.337-.55.605-.924.773v.053a2.33 2.33 0 0 1 1.136.798c.286.382.436.85.423 1.328.006.476-.125.944-.379 1.347-.251.396-.602.72-1.019.936-.418.22-.883.334-1.355.335h-3.494l-.01-9.232Zm3.314 3.983a1.523 1.523 0 0 0 1.366-.767 1.41 1.41 0 0 0 .195-.703 1.43 1.43 0 0 0-.188-.69 1.547 1.547 0 0 0-.528-.56 1.444 1.444 0 0 0-.794-.211H47.03v2.93h2.217Zm.246 4.203c.293.005.582-.076.83-.232.239-.147.434-.354.568-.6.13-.23.2-.49.201-.754a1.523 1.523 0 0 0-.212-.754 1.59 1.59 0 0 0-.58-.593 1.644 1.644 0 0 0-.862-.226H47.03v3.16h2.463Zm4.479.555c-.424-.463-.632-1.112-.625-1.948V4.785h1.095v3.97c0 .629.141 1.09.424 1.381a1.527 1.527 0 0 0 1.148.439 1.7 1.7 0 0 0 .986-.297 2.02 2.02 0 0 0 .672-.775c.157-.312.238-.656.237-1.006V4.785h1.097v6.576h-1.044v-.953h-.053c-.205.35-.504.636-.864.823a2.508 2.508 0 0 1-1.27.335c-.786 0-1.386-.232-1.803-.695Zm6.62-7.531a.753.753 0 0 1-.23-.554.748.748 0 0 1 .23-.56.771.771 0 0 1 .555-.226.773.773 0 0 1 .786.786.766.766 0 0 1-.227.555.75.75 0 0 1-.56.232.76.76 0 0 1-.554-.232Zm.015 1.445h1.095v6.575h-1.095V4.785Zm2.682-2.655h1.094v9.23H63.29V2.13Zm4.441 9.307c-.213-.08-.408-.2-.574-.356a1.83 1.83 0 0 1-.515-1.379V5.778h-1.148v-.993h1.148V2.928h1.095v1.857h1.61v.993h-1.61v3.664c-.02.288.054.575.212.817a.874.874 0 0 0 .707.29c.257.006.509-.068.722-.211v1.07a1.54 1.54 0 0 1-.392.128c-.168.029-.34.041-.51.039a2.08 2.08 0 0 1-.745-.138Zm4.944-6.652h1.135l1.559 5.197h.014l1.663-5.197h1.122l1.663 5.184h.013l1.56-5.184h1.108l-2.118 6.576h-1.11L77.59 6.113l-1.694 5.248H74.8l-2.126-6.576ZM83.375 3.34a.755.755 0 0 1-.23-.554.748.748 0 0 1 .23-.56A.771.771 0 0 1 83.93 2a.77.77 0 0 1 .786.786.766.766 0 0 1-.225.555.752.752 0 0 1-.561.233.76.76 0 0 1-.555-.233Zm.013 1.445h1.097v6.576h-1.097V4.785Zm4.402 6.652a1.717 1.717 0 0 1-.57-.356 1.823 1.823 0 0 1-.51-1.379V5.778h-1.147v-.993h1.148V2.928h1.095v1.857h1.614v.993h-1.614v3.664c-.021.288.053.575.212.817a.878.878 0 0 0 .709.29c.257.005.509-.069.722-.211v1.07c-.13.058-.268.1-.409.122-.168.028-.338.04-.508.038a2.075 2.075 0 0 1-.741-.131Zm2.87-9.307h1.097v2.72l-.053.903h.053c.197-.357.49-.651.848-.847a2.52 2.52 0 0 1 1.283-.335c.8 0 1.411.234 1.832.7.44.52.667 1.185.635 1.865v4.224H95.26V7.311c0-.593-.152-1.031-.453-1.315a1.637 1.637 0 0 0-1.173-.423 1.583 1.583 0 0 0-.947.311 2.266 2.266 0 0 0-.934 1.817v3.66h-1.097l.004-9.232Z" fill="#757575"/><defs><linearGradient id="partners/Built-with-Flutter-40__a" x1="26.362" y1="44.952" x2="45.867" y2="-.276" gradientUnits="userSpaceOnUse"><stop stop-color="#1A237E" stop-opacity=".4"/><stop offset="1" stop-color="#1A237E" stop-opacity="0"/></linearGradient></defs></svg>